<?xml version="1.0" encoding="iso-8859-1"?>
<!-- Generator: Adobe Illustrator 19.2.0, SVG Export Plug-In . SVG Version: 6.00 Build 0)  -->
<svg xmlns="http://www.w3.org/2000/svg" xmlns:xlink="http://www.w3.org/1999/xlink" version="1.1" id="Layer_1" x="0px" y="0px" viewBox="0 0 40 40" style="enable-background:new 0 0 40 40;" xml:space="preserve">
<g>
	<path style="fill:#FFFFFF;" d="M4.033,34.5C1.721,31.258,0.5,27.46,0.5,23.5c0-10.477,8.523-19,19-19s19,8.523,19,19   c0,3.96-1.221,7.758-3.533,11H4.033z"/>
	<path style="fill:#4788C7;" d="M19.5,5C29.701,5,38,13.299,38,23.5c0,3.77-1.137,7.39-3.292,10.5H4.292C2.137,30.89,1,27.27,1,23.5   C1,13.299,9.299,5,19.5,5 M19.5,4C8.73,4,0,12.73,0,23.5c0,4.306,1.413,8.273,3.777,11.5h31.446C37.587,31.773,39,27.806,39,23.5   C39,12.73,30.27,4,19.5,4L19.5,4z"/>
</g>
<g>
	<path style="fill:#98CCFD;" d="M23,31h-7c-0.552,0-1-0.448-1-1v0c0-0.552,0.448-1,1-1h7c0.552,0,1,0.448,1,1v0   C24,30.552,23.552,31,23,31z"/>
</g>
<g>
	<circle style="fill:#4788C7;" cx="19.5" cy="23.5" r="1.5"/>
</g>
<line style="fill:none;stroke:#4788C7;stroke-linecap:round;stroke-miterlimit:10;" x1="19" y1="24" x2="29.5" y2="13.5"/>
<g>
	<path style="fill:#4788C7;" d="M19.5,8L19.5,8C19.225,8,19,7.775,19,7.5v-3C19,4.225,19.225,4,19.5,4l0,0C19.775,4,20,4.225,20,4.5   v3C20,7.775,19.775,8,19.5,8z"/>
	<path style="fill:#4788C7;" d="M0.5,23h3C3.775,23,4,23.225,4,23.5l0,0C4,23.775,3.775,24,3.5,24h-3C0.225,24,0,23.775,0,23.5l0,0   C0,23.225,0.225,23,0.5,23z"/>
	<path style="fill:#4788C7;" d="M38.5,24h-3c-0.275,0-0.5-0.225-0.5-0.5l0,0c0-0.275,0.225-0.5,0.5-0.5h3c0.275,0,0.5,0.225,0.5,0.5   l0,0C39,23.775,38.775,24,38.5,24z"/>
	<path style="fill:#4788C7;" d="M11.75,10.077L11.75,10.077c-0.238,0.138-0.546,0.055-0.683-0.183l-1.5-2.598   C9.429,7.057,9.512,6.75,9.75,6.613v0c0.238-0.137,0.546-0.055,0.683,0.183l1.5,2.598C12.071,9.632,11.988,9.939,11.75,10.077z"/>
	<path style="fill:#4788C7;" d="M2.796,32.567l2.598-1.5c0.238-0.138,0.546-0.055,0.683,0.183h0   c0.138,0.238,0.055,0.546-0.183,0.683l-2.598,1.5c-0.238,0.138-0.546,0.055-0.683-0.183h0C2.475,33.012,2.557,32.704,2.796,32.567z   "/>
	<path style="fill:#4788C7;" d="M36.204,14.433l-2.598,1.5c-0.238,0.137-0.546,0.055-0.683-0.183l0,0   c-0.138-0.238-0.055-0.546,0.183-0.683l2.598-1.5c0.238-0.137,0.546-0.055,0.683,0.183l0,0   C36.525,13.988,36.443,14.296,36.204,14.433z"/>
	<path style="fill:#4788C7;" d="M27.25,10.077L27.25,10.077c0.238,0.138,0.546,0.055,0.683-0.183l1.5-2.598   c0.138-0.238,0.055-0.546-0.183-0.683v0c-0.238-0.138-0.546-0.055-0.683,0.183l-1.5,2.598C26.929,9.632,27.012,9.939,27.25,10.077z   "/>
	<path style="fill:#4788C7;" d="M36.204,32.567l-2.598-1.5c-0.238-0.138-0.546-0.055-0.683,0.183l0,0   c-0.138,0.238-0.055,0.546,0.183,0.683l2.598,1.5c0.238,0.137,0.546,0.055,0.683-0.183h0   C36.525,33.012,36.443,32.704,36.204,32.567z"/>
	<path style="fill:#4788C7;" d="M2.796,14.433l2.598,1.5c0.238,0.137,0.546,0.055,0.683-0.183h0   c0.138-0.238,0.055-0.546-0.183-0.683l-2.598-1.5c-0.238-0.137-0.546-0.055-0.683,0.183h0C2.475,13.988,2.557,14.296,2.796,14.433z   "/>
</g>
</svg>
